{"title":"Jessie J - Silver Lining (Crazy 'Bout You) {M4A+MP4} (1080p) x26","uid":7853676,"size":45194914,"categoryP":"video","categoryS":"music_videos","magnet":"?xt=urn:btih:130f7f966e41bbe4488e7f8b6df77c598e3a4b54&amp;dn=Jessie+J+-+Silver+Lining+%28Crazy+%27Bout+You%29+%7BM4A%2BMP4%7D+%281080p%29+x26&amp;tr=udp%3A%2F%2Ftracker.openbittorrent.com%3A80&amp;tr=udp%3A%2F%2Fopen.demonii.com%3A1337&amp;tr=udp%3A%2F%2Ftracker.coppersurfer.tk%3A6969&amp;tr=udp%3A%2F%2Fexodus.desync.com%3A6969","seeders":1,"leechers":0,"uploader":"Vitamin_X","files":-1,"time":1353680733,"description":" &lt;a href=&quot;http://www.shotpix.com/images/26964966265610145521.jpg&quot; rel=&quot;nofollow&quot; target=&quot;_NEW&quot;&gt;http://www.shotpix.com/images/26964966265610145521.jpg&lt;/a&gt;\n\nJessie J - Silver Lining (Crazy 'Bout You) {M4A+MP4} (1080p) x264 [VX] [P2PDL]\n\n                           1080p Full HD MP4 Video\n                                    +\n                           128 Kbps/VBR M4A Audio\n\nGeneral\nFormat                         : MPEG-4\nFormat profile                 : Base Media / Version 2\nCodec ID                       : mp42\nFile size                      : 38.6 MiB\nDuration                       : 4mn 2s\nOverall bit rate mode          : Variable\n\nVideo\nID                             : 1\nFormat                         : AVC\nWidth                          : 1 920 pixels\nHeight                         : 1 080 pixels\nDisplay aspect ratio           : 16:9\nFrame rate mode                : Variable\nFrame rate                     : 23.976 fps\nChroma subsampling             : 4:2:0\nBit depth                      : 8 bits\nScan type                      : Progressive\nBits/(Pixel*Frame)             : 0.024\nStream size                    : 34.8 MiB (90%)\nWriting library                : x264 core 128\n\nAudio\nID                             : 2\nFormat                         : AAC\nFormat/Info                    : Advanced Audio Codec\nFormat profile                 : LC\nCodec ID                       : 40\nDuration                       : 4mn 2s\nBit rate mode                  : Variable\nBit rate                       : 128 Kbps\nMaximum bit rate               : 243 Kbps\nChannel(s)                     : 2 channels\nChannel positions              : Front: L R\nSampling rate                  : 48.0 KHz\nStream size                    : 3.69 MiB (10%)\n\nSubtitles                      : No\n\nScreens:\n &lt;a href=&quot;\nhttp://www.shotpix.com/images/53737049443492157561.jpg&quot; rel=&quot;nofollow&quot; target=&quot;_NEW&quot;&gt;\nhttp://www.shotpix.com/images/53737049443492157561.jpg&lt;/a&gt; &lt;a href=&quot;\nhttp://www.shotpix.com/images/01275855780318711970.jpg&quot; rel=&quot;nofollow&quot; target=&quot;_NEW&quot;&gt;\nhttp://www.shotpix.com/images/01275855780318711970.jpg&lt;/a&gt;\n\nThumbs: &lt;a href=&quot;\nhttp://www.shotpix.com/images/76787713230919948460.jpg&quot; rel=&quot;nofollow&quot; target=&quot;_NEW&quot;&gt;\nhttp://www.shotpix.com/images/76787713230919948460.jpg&lt;/a&gt;\n\n------------------------------------------------------------------------\n\nNotes:\n\n* Recommended to use latest version VLC Media Player.\n* Install shark007 codecs in case of any kind of problem in playback (For non-VLC Media Player users).\n* Alternatively, install Core AVC codecs, the fastest decoder that there is coupled with Community Center Codec Pack and play on Windows Media Player Classic.\n\nGreets to: VYTO, a2zRG, staff members at ExtraTorrent, TPB,KAT, 1337x, PublicHD, Ahashare, TorrentMafia, BTScene, P2PDL, and all others\n\nEncoder Notes: Looking For Early Access To Anything You Can Provide DVDScr, R5, DVDRips, BluRay, Direct Audio, Early Music\nReleases, Seedboxes, Links, Dedicated Servers anything u can provide, Advance / Promo CDs/DVDs. If You Got anything to\noffer contact me at &quot;&lt;a class=&quot;__cf_email__&quot; href=&quot;/cdn-cgi/l/email-protection&quot; data-cfemail=&quot;53232134133b26203b7d303c3e&quot;&gt;[email&amp;#160;protected]&lt;/a&gt;&lt;script cf-hash='f9e31' type=&quot;text/javascript&quot;&gt;\n/* &lt;![CDATA[ */!function(){try{var t=&quot;currentScript&quot;in document?document.currentScript:function(){for(var t=document.getElementsByTagName(&quot;script&quot;),e=t.length;e--;)if(t[e].getAttribute(&quot;cf-hash&quot;))return t[e]}();if(t&amp;&amp;t.previousSibling){var e,r,n,i,c=t.previousSibling,a=c.getAttribute(&quot;data-cfemail&quot;);if(a){for(e=&quot;&quot;,r=parseInt(a.substr(0,2),16),n=2;a.length-n;n+=2)i=parseInt(a.substr(n,2),16)^r,e+=String.fromCharCode(i);e=document.createTextNode(e),c.parentNode.replaceChild(e,c)}}}catch(u){}}();/* ]]&gt; */&lt;/script&gt;&quot;","torrent":{"xt":"urn:btih:130f7f966e41bbe4488e7f8b6df77c598e3a4b54","amp;dn":"Jessie+J+-+Silver+Lining+%28Crazy+%27Bout+You%29+%7BM4A%2BMP4%7D+%281080p%29+x26","amp;tr":["udp%3A%2F%2Ftracker.openbittorrent.com%3A80","udp%3A%2F%2Fopen.demonii.com%3A1337","udp%3A%2F%2Ftracker.coppersurfer.tk%3A6969","udp%3A%2F%2Fexodus.desync.com%3A6969"],"infoHash":"130f7f966e41bbe4488e7f8b6df77c598e3a4b54","infoHashBuffer":{"type":"Buffer","data":[19,15,127,150,110,65,187,228,72,142,127,139,109,247,124,89,142,58,75,84]},"announce":[],"urlList":[]}}